<svg xmlns="http://www.w3.org/2000/svg" xmlns:xlink="http://www.w3.org/1999/xlink" width="360" height="640" viewBox="0 0 360 640">
  <defs>
    <clipPath id="clip-Android_Mobile_1">
      <rect width="360" height="640"/>
    </clipPath>
  </defs>
  <g id="Android_Mobile_1" data-name="Android Mobile – 1" clip-path="url(#clip-Android_Mobile_1)">
    <rect width="360" height="640" fill="#fff"/>
    <g id="Rectangle_49" data-name="Rectangle 49" fill="#eee" stroke="#707070" stroke-width="1">
      <rect width="360" height="640" stroke="none"/>
      <rect x="0.5" y="0.5" width="359" height="639" fill="none"/>
    </g>
    <g id="Group_7" data-name="Group 7" transform="translate(0.873)">
      <path id="Mask" d="M-.011,3.4A3.394,3.394,0,0,1,3.383,0H354.254a3.394,3.394,0,0,1,3.394,3.389l.392,252.528H.381Z" transform="translate(0.011)" fill="#d8d8d8"/>
      <path id="photo_icon" data-name="photo icon" d="M35.412,34.81h0A205.151,205.151,0,0,1,8.7,32.933C2.82,32.135.057,31.443,0,30.756c-.046-.564,1.635-1.08,3.582-1.677C5.7,28.43,8.093,27.7,8.7,26.735l.249-.4,0-.005c1.806-2.895,5.168-8.283,10.112-9.925a4.138,4.138,0,0,1,1.282-.238c1.565,0,2.03,1.334,2.3,2.776.046.244.085.489.123.725.177,1.1.33,2.052.97,2.052a1.121,1.121,0,0,0,.509-.151c.829-.433,1.973-2.188,3.423-4.411a56.655,56.655,0,0,1,5.62-7.611c2.58-2.774,5.046-4.248,7.54-4.505a13.018,13.018,0,0,1,1.329-.071,8.2,8.2,0,0,1,6.677,3.076,31.171,31.171,0,0,1,4.027,7.291c.458,1.02.931,2.075,1.442,3.132.572,1.184,1.156,2.286,1.721,3.351,1.817,3.426,3.252,6.132,2.412,8.189-.509,1.246-1.861,2.2-4.133,2.922C50.483,34.143,43.775,34.81,35.412,34.81ZM14.753,12.266a6.133,6.133,0,1,1,6.133-6.133A6.14,6.14,0,0,1,14.753,12.266Z" transform="translate(149.98 99.628)" fill="#a3a3a3"/>
    </g>
    <g id="tab-active" transform="translate(186.795 332.726)">
      <rect id="Rectangle_46" data-name="Rectangle 46" width="133" height="40" rx="2" transform="translate(0.205 0.274)" fill="none"/>
      <text id="sign_up" data-name="sign up" transform="translate(65.205 24.274)" fill="#186aa5" font-size="15" font-family="Montserrat-Bold, Montserrat" font-weight="700"><tspan x="-29.122" y="0">sign up</tspan></text>
      <rect id="Rectangle_47" data-name="Rectangle 47" width="85" height="3" rx="1" transform="translate(24.205 37.274)" fill="#186aa5"/>
    </g>
    <g id="tab-inactive" transform="translate(52 332.726)">
      <rect id="Rectangle_45" data-name="Rectangle 45" width="133" height="40" rx="2" transform="translate(0 0.274)" fill="none"/>
      <text id="login" transform="translate(66 25.274)" fill="#73a1c2" font-size="16" font-family="Montserrat-Bold, Montserrat" font-weight="700"><tspan x="-21.184" y="0">login</tspan></text>
    </g>
    <g id="input" transform="translate(52 386.11)">
      <rect id="Rectangle_20" data-name="Rectangle 20" width="267" height="40" rx="2" transform="translate(0 -0.11)" fill="#fff"/>
      <text id="Email" transform="translate(16 23.89)" fill="#73a1c2" font-size="12" font-family="Montserrat-Medium, Montserrat" font-weight="500"><tspan x="0" y="0">Email</tspan></text>
    </g>
    <g id="input-2" data-name="input" transform="translate(52 439.494)">
      <rect id="Rectangle_20-2" data-name="Rectangle 20" width="267" height="41" rx="2" transform="translate(0 -0.494)" fill="#fff"/>
      <text id="password" transform="translate(16 23.506)" fill="#73a1c2" font-size="11" font-family="Montserrat-Medium, Montserrat" font-weight="500"><tspan x="0" y="0">Password</tspan></text>
    </g>
    <g id="input-3" data-name="input" transform="translate(52 492.878)">
      <rect id="Rectangle_20-3" data-name="Rectangle 20" width="267" height="40" rx="2" transform="translate(0 0.122)" fill="#fff"/>
      <text id="Repeat_Password" data-name="Repeat Password" transform="translate(16 24.122)" fill="#73a1c2" font-size="12" font-family="Montserrat-Medium, Montserrat" font-weight="500"><tspan x="0" y="0">Repeat Password</tspan></text>
    </g>
    <g id="solid-button" transform="translate(52 546.262)">
      <rect id="Rectangle_2" data-name="Rectangle 2" width="267" height="40" rx="2" transform="translate(0 -0.262)" fill="#186aa5"/>
      <text id="sign_up-2" data-name="sign up" transform="translate(133.552 24.01)" fill="#e8eff7" font-size="13" font-family="Montserrat-SemiBold, Montserrat" font-weight="600"><tspan x="-28.087" y="0">SIGN UP</tspan></text>
    </g>
    <text id="Game_Fellowship" data-name="Game Fellowship" transform="translate(187 308)" fill="#73a1c2" font-size="16" font-family="Montserrat-Bold, Montserrat" font-weight="700"><tspan x="-71.976" y="0">Game Fellowship</tspan></text>
  </g>
</svg>
