<svg xmlns="http://www.w3.org/2000/svg" xmlns:xlink="http://www.w3.org/1999/xlink" width="360" height="640" viewBox="0 0 360 640">
  <defs>
    <clipPath id="clip-path">
      <rect id="Mask" width="359.434" height="70.441" transform="translate(359.434 70.441) rotate(180)" fill="#65a3ff"/>
    </clipPath>
    <clipPath id="clip-Android_Mobile_1">
      <rect width="360" height="640"/>
    </clipPath>
  </defs>
  <g id="Android_Mobile_1" data-name="Android Mobile – 1" clip-path="url(#clip-Android_Mobile_1)">
    <rect width="360" height="640" fill="#fff"/>
    <g id="Status_Bar_Black_20_" data-name="Status Bar/Black/20%" transform="translate(12.333 12.83)">
      <g id="Pin_Right" data-name="Pin Right" transform="translate(279.985 0)">
        <path id="Battery" d="M22.609,10.228H1.615A1.616,1.616,0,0,1,0,8.613v-7A1.616,1.616,0,0,1,1.615,0H22.609a1.617,1.617,0,0,1,1.616,1.615v7A1.617,1.617,0,0,1,22.609,10.228ZM1.615.538A1.078,1.078,0,0,0,.538,1.615v7A1.078,1.078,0,0,0,1.615,9.689H22.609a1.078,1.078,0,0,0,1.077-1.076v-7A1.078,1.078,0,0,0,22.609.538ZM25.3,7h-.538V3.23H25.3a1.078,1.078,0,0,1,1.076,1.076V5.921A1.078,1.078,0,0,1,25.3,7Z" transform="translate(29.99)"/>
        <path id="Battery_Level" data-name="Battery Level" d="M.538,0H4.307a0,0,0,0,1,0,0V8.075a0,0,0,0,1,0,0H.538A.538.538,0,0,1,0,7.536v-7A.538.538,0,0,1,.538,0Z" transform="translate(31.067 1.077)"/>
        <path id="_30_" data-name="30%" d="M11.475,9.532A2.728,2.728,0,0,1,9.09,8.283a6.27,6.27,0,0,1-.845-3.52A6.229,6.229,0,0,1,9.1,1.255,2.726,2.726,0,0,1,11.475,0a2.712,2.712,0,0,1,2.369,1.258,6.291,6.291,0,0,1,.849,3.524,6.239,6.239,0,0,1-.842,3.507A2.717,2.717,0,0,1,11.475,9.532Zm0-8.536a1.7,1.7,0,0,0-1.543.981,5.841,5.841,0,0,0-.545,2.786,5.947,5.947,0,0,0,.539,2.8,1.712,1.712,0,0,0,3.092,0,5.976,5.976,0,0,0,.533-2.8,5.914,5.914,0,0,0-.539-2.788A1.688,1.688,0,0,0,11.475,1ZM3.2,9.532a3.537,3.537,0,0,1-2.265-.7A2.459,2.459,0,0,1,0,6.97H1.1a1.585,1.585,0,0,0,.646,1.146,2.367,2.367,0,0,0,1.448.426,2.256,2.256,0,0,0,1.476-.473,1.536,1.536,0,0,0,.574-1.237,1.546,1.546,0,0,0-.555-1.249,2.311,2.311,0,0,0-1.514-.46H2.044V4.151H3.123A1.853,1.853,0,0,0,4.413,3.7a1.5,1.5,0,0,0,.5-1.16,1.486,1.486,0,0,0-.46-1.092A1.765,1.765,0,0,0,3.167.99,2.053,2.053,0,0,0,1.839,1.4a1.621,1.621,0,0,0-.577,1.176H.157a2.7,2.7,0,0,1,.9-1.842A3.167,3.167,0,0,1,3.243,0,2.877,2.877,0,0,1,5.333.725,2.273,2.273,0,0,1,6.069,2.41a2.053,2.053,0,0,1-.464,1.356A2.353,2.353,0,0,1,4.448,4.5v.1a2.383,2.383,0,0,1,1.422.722,2.185,2.185,0,0,1,.539,1.536,2.382,2.382,0,0,1-.923,1.905A3.479,3.479,0,0,1,3.2,9.532Zm20.988-.126a1.891,1.891,0,0,1-1.451-.571,2.233,2.233,0,0,1-.53-1.574,2.217,2.217,0,0,1,.533-1.568,2.122,2.122,0,0,1,2.9,0,2.231,2.231,0,0,1,.527,1.568,2.235,2.235,0,0,1-.527,1.577A1.883,1.883,0,0,1,24.193,9.406Zm0-3.451a.868.868,0,0,0-.738.346,1.591,1.591,0,0,0-.259.966,1.589,1.589,0,0,0,.259.968.961.961,0,0,0,1.476,0,1.6,1.6,0,0,0,.258-.965,1.6,1.6,0,0,0-.258-.966A.87.87,0,0,0,24.193,5.955ZM18.515,9.318H17.487l6.289-9.1H24.8l-6.29,9.1Zm-.41-4.984a1.888,1.888,0,0,1-1.454-.571,2.244,2.244,0,0,1-.526-1.574A2.217,2.217,0,0,1,16.657.621,1.9,1.9,0,0,1,18.105.05a1.881,1.881,0,0,1,1.447.571,2.231,2.231,0,0,1,.527,1.568,2.24,2.24,0,0,1-.527,1.578A1.886,1.886,0,0,1,18.105,4.334Zm0-3.451a.878.878,0,0,0-.742.347A1.579,1.579,0,0,0,17.1,2.2a1.575,1.575,0,0,0,.262.968.882.882,0,0,0,.742.344.871.871,0,0,0,.738-.346A1.606,1.606,0,0,0,19.1,2.2a1.579,1.579,0,0,0-.262-.965A.87.87,0,0,0,18.105.883Z" transform="translate(0 0.641)"/>
      </g>
      <path id="_9:41_AM" data-name="9:41 AM" d="M3.117,9.526A3.1,3.1,0,0,1,1.151,8.9,2.773,2.773,0,0,1,.132,7.2H1.3a1.787,1.787,0,0,0,.671.965,1.933,1.933,0,0,0,1.158.354,1.95,1.95,0,0,0,1.725-.959,5.449,5.449,0,0,0,.659-2.776h-.1a2.441,2.441,0,0,1-.971,1.031,2.858,2.858,0,0,1-1.452.369A2.889,2.889,0,0,1,.845,5.321,3,3,0,0,1,0,3.136,3.04,3.04,0,0,1,.9.88,3.154,3.154,0,0,1,3.192,0,3.1,3.1,0,0,1,5.639,1.142a5.24,5.24,0,0,1,.978,3.463A6.227,6.227,0,0,1,5.7,8.239,3,3,0,0,1,3.117,9.526ZM3.2,1a1.98,1.98,0,0,0-1.467.6,2.065,2.065,0,0,0-.59,1.5,2.084,2.084,0,0,0,.571,1.517A1.978,1.978,0,0,0,3.192,5.2,1.993,1.993,0,0,0,5.261,3.136a2.125,2.125,0,0,0-.59-1.527A1.963,1.963,0,0,0,3.2,1ZM41.27,9.319h-1.06V.214h1.319l3.117,7.6h.1l3.117-7.6h1.319v9.1H48.12V2.366h-.076l-2.87,6.952h-.959l-2.87-6.952h-.076V9.318Zm-9.482,0H30.6l3.356-9.1h1.123l3.355,9.1-1.192,0L37.1,8.924q-.139-.394-.319-.909t-.319-.908l-.139-.394H32.7l-.914,2.606Zm2.675-7.635-.145.41c-.094.265-.208.588-.356,1.016l-.423,1.211c-.149.428-.262.751-.356,1.016l-.145.41h2.952L34.564,1.684h-.1ZM24.451,9.318H23.315V1.476h-.1l-.35.253-.694.5-.069.05-.044.032q-.458.335-.807.587l-.35.253v-1.2l.365-.262q.366-.262.846-.608t.845-.609l.366-.262h1.129v9.1Zm-6.542,0H16.8V7.431H12.364V6.4c.3-.5.615-1.027.947-1.567.313-.509.625-1.012.984-1.584.281-.448.606-.956.994-1.554.293-.452.612-.935.975-1.477h1.646v6.2H19.2V7.431H17.909V9.317ZM16.73,1.268c-.276.41-.542.815-.792,1.2-.235.365-.513.8-.823,1.284-.284.448-.558.889-.816,1.311-.22.359-.466.766-.773,1.281v.076h3.281V1.268Zm-7.2,6.756a.82.82,0,1,1,.581-1.4.819.819,0,0,1,0,1.157A.79.79,0,0,1,9.526,8.024Zm0-4.882a.83.83,0,0,1-.82-.821.786.786,0,0,1,.243-.58.818.818,0,0,1,1.4.58.824.824,0,0,1-.82.821Z" transform="translate(143.13 0.641)"/>
      <g id="Pin_Left" data-name="Pin Left" transform="translate(0)">
        <path id="Wi-Fi" d="M4.694,7.435a3.1,3.1,0,0,1,4.612.035L7.023,9.689Zm2.29-2.615A4.758,4.758,0,0,0,3.52,6.3L2.346,5.16a6.5,6.5,0,0,1,9.307.032L10.481,6.33A4.756,4.756,0,0,0,6.985,4.819Zm0-3.213A8.116,8.116,0,0,0,1.173,4.024L0,2.887A9.8,9.8,0,0,1,6.985,0,9.794,9.794,0,0,1,14,2.914L12.825,4.053A8.118,8.118,0,0,0,6.985,1.607Z" transform="translate(87.746)"/>
        <path id="Carrier" d="M3.381,9.715a3.805,3.805,0,0,1-2.369-.706A2.517,2.517,0,0,1,0,7.123H1.148a1.615,1.615,0,0,0,.738,1.135,2.83,2.83,0,0,0,1.6.423,2.507,2.507,0,0,0,1.524-.445,1.348,1.348,0,0,0,.6-1.12,1.232,1.232,0,0,0-.441-.966,3.343,3.343,0,0,0-1.382-.618l-1.167-.3a3.769,3.769,0,0,1-1.8-.9A2.157,2.157,0,0,1,.265,2.776,2.305,2.305,0,0,1,1.151.9,3.613,3.613,0,0,1,3.482.183,3.45,3.45,0,0,1,5.69.889,2.431,2.431,0,0,1,6.649,2.7H5.507a1.645,1.645,0,0,0-.665-1.094,2.328,2.328,0,0,0-1.4-.394,2.362,2.362,0,0,0-1.461.416,1.329,1.329,0,0,0-.552,1.111,1.076,1.076,0,0,0,.407.87,3.586,3.586,0,0,0,1.347.574l.952.253a4.516,4.516,0,0,1,2.029.946,2.123,2.123,0,0,1,.615,1.6,2.442,2.442,0,0,1-.918,2A3.855,3.855,0,0,1,3.381,9.715ZM31.132,9.62a2.9,2.9,0,0,1-2.274-.962,3.779,3.779,0,0,1-.849-2.583,3.706,3.706,0,0,1,.846-2.543A3.256,3.256,0,0,1,33.1,3.227a2.546,2.546,0,0,1,.874,1.555h-1.1a1.633,1.633,0,0,0-.578-.864,1.82,1.82,0,0,0-1.176-.36,1.769,1.769,0,0,0-1.454.681,2.9,2.9,0,0,0-.539,1.836,2.978,2.978,0,0,0,.543,1.874,1.754,1.754,0,0,0,1.451.694,2.011,2.011,0,0,0,1.145-.31,1.489,1.489,0,0,0,.609-.883h1.1A2.469,2.469,0,0,1,33.094,9,2.968,2.968,0,0,1,31.132,9.62Zm-12.5,0a2.829,2.829,0,0,1-2.24-.95,3.788,3.788,0,0,1-.826-2.564A3.793,3.793,0,0,1,16.4,3.542a2.818,2.818,0,0,1,2.234-.962A2.712,2.712,0,0,1,20.8,3.5,3.73,3.73,0,0,1,21.587,6v.416H16.7v.051a2.506,2.506,0,0,0,.571,1.6,1.778,1.778,0,0,0,1.391.593,2.3,2.3,0,0,0,1.1-.237,1.5,1.5,0,0,0,.656-.685H21.5a2.335,2.335,0,0,1-.991,1.375A3.314,3.314,0,0,1,18.635,9.62Zm-.013-6.081a1.774,1.774,0,0,0-1.337.549A2.263,2.263,0,0,0,16.7,5.539h3.746a2.15,2.15,0,0,0-.517-1.451A1.687,1.687,0,0,0,18.623,3.539Zm7.267,6.012a2.192,2.192,0,0,1-1.5-.422,1.837,1.837,0,0,1-.458-1.395V3.608h-1.1V2.7h1.1V.94h1.085V2.7h1.514v.908H25.013V7.457a1.3,1.3,0,0,0,.239.87.984.984,0,0,0,.77.272c.1,0,.176,0,.248-.006l.256-.019v.914c-.115.023-.218.038-.315.048C26.1,9.546,25.99,9.551,25.889,9.551ZM36.911,9.5H35.825V0h1.085V3.773h.1A1.958,1.958,0,0,1,37.8,2.9a2.531,2.531,0,0,1,1.309-.315,2.277,2.277,0,0,1,1.713.659A2.585,2.585,0,0,1,41.452,5.1V9.5H40.368V5.362a2,2,0,0,0-.4-1.354A1.491,1.491,0,0,0,38.8,3.558a1.816,1.816,0,0,0-1.4.527,1.981,1.981,0,0,0-.485,1.391V9.5ZM9.86,9.5H8.775V0H9.86V5.671h.1l.3-.3c.249-.249.483-.485.738-.744L11,4.622l.005-.005.005-.005.005-.005.005-.005.005-.005q.423-.428.844-.853.439-.443.738-.742l.3-.3h1.331L11.318,5.614,14.439,9.5l-1.381,0L10.51,6.314l-.65.606V9.5Z" transform="translate(41.631 0.458)"/>
        <path id="Mobile_Signal" data-name="Mobile Signal" d="M33.354,5.383a2.852,2.852,0,0,1-2.983-2.691,3,3,0,0,1,5.966,0A2.851,2.851,0,0,1,33.354,5.383Zm0-4.893a2.333,2.333,0,0,0-2.44,2.2,2.453,2.453,0,0,0,4.881,0A2.333,2.333,0,0,0,33.353.49ZM25.761,5.383a2.851,2.851,0,0,1-2.983-2.691A2.852,2.852,0,0,1,25.761,0a2.852,2.852,0,0,1,2.983,2.692A2.851,2.851,0,0,1,25.761,5.383Zm0-4.893a2.333,2.333,0,0,0-2.44,2.2,2.453,2.453,0,0,0,4.881,0A2.333,2.333,0,0,0,25.761.49ZM18.168,5.383a2.851,2.851,0,0,1-2.983-2.691A2.852,2.852,0,0,1,18.168,0a2.852,2.852,0,0,1,2.983,2.692A2.851,2.851,0,0,1,18.168,5.383Zm-7.592,0A2.852,2.852,0,0,1,7.592,2.692,2.852,2.852,0,0,1,10.576,0a2.852,2.852,0,0,1,2.983,2.692A2.851,2.851,0,0,1,10.576,5.383Zm-7.593,0A2.851,2.851,0,0,1,0,2.692,2.852,2.852,0,0,1,2.983,0,2.852,2.852,0,0,1,5.966,2.692,2.852,2.852,0,0,1,2.983,5.383Z" transform="translate(0 2.692)"/>
      </g>
    </g>
    <g id="nav_bar" data-name="nav bar" transform="translate(360 70.441) rotate(180)">
      <g id="Group_24" data-name="Group 24">
        <g id="nav_bar-2" data-name="nav bar">
          <g id="Group_23" data-name="Group 23">
            <g id="ui_pic" data-name="ui/pic">
              <rect id="Mask-2" data-name="Mask" width="359.434" height="70.441" transform="translate(359.434 70.441) rotate(180)" fill="#65a3ff"/>
            </g>
          </g>
        </g>
        <text id="Connect" transform="translate(327.484 33.466) rotate(180)" fill="#fff" font-size="15" font-family="SegoeUI, Segoe UI"><tspan x="126.662" y="16">Profile</tspan></text>
      </g>
      <g id="icon" transform="translate(329.113 16.499)">
        <rect id="Rectangle" width="2.303" height="10.363" rx="1.151" transform="translate(1.628 14.795) rotate(-135)" fill="#b3b3b3"/>
        <rect id="Rectangle_Copy" data-name="Rectangle Copy" width="2.303" height="10.363" rx="1.151" transform="translate(0.082 1.628) rotate(-45)" fill="#b3b3b3"/>
      </g>
      <g id="Bars_Status_Black" data-name="Bars/Status/Black" transform="translate(359.434 70.441) rotate(180)">
        <rect id="Bars_Status_Black_background" data-name="Bars/Status/Black background" width="359.434" height="22.14" fill="rgba(0,0,0,0)"/>
        <g id="Pin_Right-2" data-name="Pin Right" transform="translate(282.934 3.5)">
          <g id="Battery-2" data-name="Battery" transform="translate(8.5)">
            <g id="Battery-3" data-name="Battery" transform="translate(36 1)">
              <g id="Border" fill="none" stroke-miterlimit="10" opacity="0.4">
                <path d="M0,2.5A2.5,2.5,0,0,1,2.5,0h19A2.5,2.5,0,0,1,24,2.5V9a2.5,2.5,0,0,1-2.5,2.5H2.5A2.5,2.5,0,0,1,0,9Z" stroke="none"/>
                <path d="M 2.5 1 C 1.67289924621582 1 1 1.672900199890137 1 2.5 L 1 9 C 1 9.827099800109863 1.67289924621582 10.5 2.5 10.5 L 20.14764022827148 10.5 L 21.5 10.5 C 22.32710075378418 10.5 23 9.827099800109863 23 9 L 23 2.5 C 23 1.672900199890137 22.32710075378418 1 21.5 1 L 2.5 1 M 2.5 0 L 21.5 0 C 22.88071060180664 0 24 1.119290351867676 24 2.5 L 24 9 C 24 10.38070964813232 22.88071060180664 11.5 21.5 11.5 L 20.14764022827148 11.5 L 0 11.5 L 2.5 11.5 C 1.119289398193359 11.5 0 10.38070964813232 0 9 L 0 2.5 C 0 1.119290351867676 1.119289398193359 0 2.5 0 Z" stroke="none" fill="#fff"/>
              </g>
              <path id="Nub" d="M0,3.874H0V0A2,2,0,0,1,1.5,1.937,2,2,0,0,1,0,3.873Z" transform="translate(25 4)" fill="#fff" opacity="0.4"/>
              <rect id="Charge" width="20" height="7.5" rx="0.5" transform="translate(2 2)" fill="#fff"/>
            </g>
            <text id="_100_" data-name="100%" fill="#fff" font-size="12" font-family="SegoeUI, Segoe UI"><tspan x="3.773" y="13">100%</tspan></text>
          </g>
          <path id="Bluetooth" d="M0,2,6,7.5,3,10V0L6,2.5,0,8" transform="translate(0 1.5)" fill="none" stroke="#fff" stroke-miterlimit="10" stroke-width="1"/>
        </g>
        <text id="Time" transform="translate(176.447 13)" fill="#fff" font-size="10" font-family="SegoeUI-Semibold, Segoe UI" font-weight="600"><tspan x="-18.242" y="0">9:41 AM</tspan></text>
        <g id="Signal">
          <rect id="Signal_background" data-name="Signal background" width="139" height="20" fill="rgba(0,0,0,0)"/>
          <text id="Carrier-2" data-name="Carrier" transform="translate(26 14.5)" fill="#fff" font-size="12" font-family="SegoeUI, Segoe UI"><tspan x="0" y="0">Sketch</tspan></text>
          <path id="Mobile_Signal-2" data-name="Mobile Signal" d="M14.5,10a1,1,0,0,1-1-1V1a1,1,0,0,1,1-1h1a1,1,0,0,1,1,1V9a1,1,0,0,1-1,1ZM10,10A1,1,0,0,1,9,9V3a1,1,0,0,1,1-1h1a1,1,0,0,1,1,1V9a1,1,0,0,1-1,1ZM5.5,10a1,1,0,0,1-1-1V5a1,1,0,0,1,1-1h1a1,1,0,0,1,1,1V9a1,1,0,0,1-1,1ZM1,10A1,1,0,0,1,0,9V6.5a1,1,0,0,1,1-1H2a1,1,0,0,1,1,1V9a1,1,0,0,1-1,1Z" transform="translate(6 5)" fill="#fff"/>
          <path id="Wifi" d="M7.17,10h0L4.958,7.788a3.5,3.5,0,0,1,4.424,0L7.171,10ZM3.892,6.724h0L2.477,5.306a7,7,0,0,1,9.387,0L10.448,6.722a5,5,0,0,0-6.555,0ZM1.414,4.245h0L0,2.83a10.5,10.5,0,0,1,14.341,0L12.927,4.244a8.5,8.5,0,0,0-11.512,0Z" transform="translate(71.33 5)" fill="#fff"/>
        </g>
      </g>
    </g>
    <g id="Illustrations_make_ad" data-name="Illustrations / make ad" transform="translate(22.594 93.814)">
      <g id="Logos_3karatLogo" data-name="Logos / 3karatLogo">
        <ellipse id="Oval" cx="45.16" cy="45.055" rx="45.16" ry="45.055" fill="#d8d8d8"/>
        <path id="photo_icon" data-name="photo icon" d="M19.394,19.062h0A112.972,112.972,0,0,1,4.762,18.04C1.544,17.6.031,17.228,0,16.854c-.025-.307.9-.588,1.962-.913,1.158-.353,2.469-.753,2.8-1.275l.13-.207.007-.011c.989-1.577,2.83-4.512,5.538-5.406a2.277,2.277,0,0,1,.7-.13c.858,0,1.111.726,1.258,1.511.025.134.047.268.068.4.1.6.181,1.115.531,1.115a.626.626,0,0,0,.279-.082,8.853,8.853,0,0,0,1.875-2.4,30.848,30.848,0,0,1,3.078-4.144,6.8,6.8,0,0,1,4.13-2.453,7.173,7.173,0,0,1,.727-.039c3.315,0,4.5,2.616,5.862,5.644.251.555.51,1.13.789,1.705.313.645.633,1.245.943,1.825.994,1.864,1.779,3.335,1.322,4.455a3.292,3.292,0,0,1-2.265,1.595A38.937,38.937,0,0,1,19.394,19.062ZM8.141,6.715a3.357,3.357,0,1,1,3.366-3.358A3.365,3.365,0,0,1,8.141,6.715Z" transform="translate(29.094 35.524)" fill="#a3a3a3"/>
      </g>
    </g>
    <rect id="Base_Copy_2" data-name="Base Copy 2" width="85.587" height="10.363" rx="5.181" transform="translate(249.082 216.95)" fill="#6e6e6e" opacity="0.3"/>
    <rect id="Base_Copy_3" data-name="Base Copy 3" width="85.587" height="10.363" rx="5.181" transform="translate(145.616 216.95)" fill="#6e6e6e" opacity="0.3"/>
    <rect id="Base_Copy_4" data-name="Base Copy 4" width="85.587" height="10.363" rx="5.181" transform="translate(42.486 216.95)" fill="#6e6e6e"/>
    <rect id="Base_Copy_5" data-name="Base Copy 5" width="359.5" height="0.768" rx="0.384" transform="translate(0.5 253.435)" fill="#6e6e6e" opacity="0.115"/>
    <rect id="Base_Copy_5-2" data-name="Base Copy 5" width="359.5" height="0.768" rx="0.384" transform="translate(0.5 267.892)" fill="#6e6e6e" opacity="0.115"/>
    <g id="Group_3" data-name="Group 3" transform="translate(44.253 370.765)">
      <rect id="Rectangle-2" data-name="Rectangle" width="31.855" height="11.898" rx="5.949" transform="translate(248.966)" fill="#d2d2d2"/>
      <rect id="Rectangle-3" data-name="Rectangle" width="42.602" height="11.898" rx="5.949" transform="translate(238.219 35.31)" fill="#d2d2d2"/>
      <rect id="Rectangle-4" data-name="Rectangle" width="21.493" height="11.898" rx="5.949" transform="translate(259.328 71.387)" fill="#d2d2d2"/>
      <rect id="Rectangle-5" data-name="Rectangle" width="85.204" height="11.898" rx="5.949" transform="translate(0 71.387)" fill="#f1f1f1"/>
      <rect id="Rectangle-6" data-name="Rectangle" width="127.805" height="11.898" rx="5.949" transform="translate(0 35.31)" fill="#f1f1f1"/>
      <rect id="Rectangle-7" data-name="Rectangle" width="53.348" height="11.898" rx="5.949" transform="translate(0)" fill="#f1f1f1"/>
    </g>
    <g id="Group_3-2" data-name="Group 3" transform="translate(44.253 370.765)">
      <rect id="Rectangle-8" data-name="Rectangle" width="31.855" height="11.898" rx="5.949" transform="translate(248.966)" fill="#d2d2d2"/>
      <rect id="Rectangle-9" data-name="Rectangle" width="42.602" height="11.898" rx="5.949" transform="translate(238.219 35.31)" fill="#d2d2d2"/>
      <rect id="Rectangle-10" data-name="Rectangle" width="21.493" height="11.898" rx="5.949" transform="translate(259.328 71.387)" fill="#d2d2d2"/>
      <rect id="Rectangle-11" data-name="Rectangle" width="85.204" height="11.898" rx="5.949" transform="translate(0 71.387)" fill="#f1f1f1"/>
      <rect id="Rectangle-12" data-name="Rectangle" width="127.805" height="11.898" rx="5.949" transform="translate(0 35.31)" fill="#f1f1f1"/>
      <rect id="Rectangle-13" data-name="Rectangle" width="53.348" height="11.898" rx="5.949" transform="translate(0)" fill="#f1f1f1"/>
    </g>
    <rect id="Rectangle_2_Copy" data-name="Rectangle 2 Copy" width="280.821" height="103.626" rx="7.676" transform="translate(43.486 285.547)" fill="#f1f1f1"/>
    <g id="Group_3-3" data-name="Group 3" transform="translate(45.253 555.765)">
      <rect id="Rectangle-14" data-name="Rectangle" width="31.855" height="11.898" rx="5.949" transform="translate(248.966)" fill="#d2d2d2"/>
      <rect id="Rectangle-15" data-name="Rectangle" width="42.602" height="11.898" rx="5.949" transform="translate(238.219 35.31)" fill="#d2d2d2"/>
      <rect id="Rectangle-16" data-name="Rectangle" width="21.493" height="11.898" rx="5.949" transform="translate(259.328 71.387)" fill="#d2d2d2"/>
      <rect id="Rectangle-17" data-name="Rectangle" width="85.204" height="11.898" rx="5.949" transform="translate(0 71.387)" fill="#f1f1f1"/>
      <rect id="Rectangle-18" data-name="Rectangle" width="127.805" height="11.898" rx="5.949" transform="translate(0 35.31)" fill="#f1f1f1"/>
      <rect id="Rectangle-19" data-name="Rectangle" width="53.348" height="11.898" rx="5.949" transform="translate(0)" fill="#f1f1f1"/>
    </g>
    <g id="Group_3-4" data-name="Group 3" transform="translate(45.253 555.765)">
      <rect id="Rectangle-20" data-name="Rectangle" width="31.855" height="11.898" rx="5.949" transform="translate(248.966)" fill="#d2d2d2"/>
      <rect id="Rectangle-21" data-name="Rectangle" width="42.602" height="11.898" rx="5.949" transform="translate(238.219 35.31)" fill="#d2d2d2"/>
      <rect id="Rectangle-22" data-name="Rectangle" width="21.493" height="11.898" rx="5.949" transform="translate(259.328 71.387)" fill="#d2d2d2"/>
      <rect id="Rectangle-23" data-name="Rectangle" width="85.204" height="11.898" rx="5.949" transform="translate(0 71.387)" fill="#f1f1f1"/>
      <rect id="Rectangle-24" data-name="Rectangle" width="127.805" height="11.898" rx="5.949" transform="translate(0 35.31)" fill="#f1f1f1"/>
      <rect id="Rectangle-25" data-name="Rectangle" width="53.348" height="11.898" rx="5.949" transform="translate(0)" fill="#f1f1f1"/>
    </g>
    <rect id="Rectangle_2_Copy-2" data-name="Rectangle 2 Copy" width="280.821" height="103.626" rx="7.676" transform="translate(44.486 470.547)" fill="#f1f1f1"/>
    <text id="Username" transform="translate(180 119)" fill="#707070" font-size="20" font-family="SegoeUI, Segoe UI"><tspan x="0" y="0">Username</tspan></text>
    <text id="info" transform="translate(208 147)" fill="#707070" font-size="15" font-family="SegoeUI, Segoe UI"><tspan x="0" y="0">info</tspan></text>
    <text id="Games" transform="translate(158 336)" fill="#707070" font-size="15" font-family="SegoeUI, Segoe UI"><tspan x="0" y="0">Games</tspan></text>
    <text id="Games-2" data-name="Games" transform="translate(158 528)" fill="#707070" font-size="15" font-family="SegoeUI, Segoe UI"><tspan x="0" y="0">Games</tspan></text>
  </g>
</svg>
