<svg xmlns="http://www.w3.org/2000/svg" xmlns:xlink="http://www.w3.org/1999/xlink" width="360" height="640" viewBox="0 0 360 640">
  <defs>
    <clipPath id="clip-path">
      <path id="path-1" d="M12.857,12.857H0V9.342H2.335V7.006H4.671V4.671H7.006V2.335H9.342V0h3.516V12.856ZM1,10.346v1.507H11.853V1H10.346V3.339H8.01V5.675H5.675V8.01H3.339v2.336Z" fill="none"/>
    </clipPath>
    <clipPath id="clip-path-2">
      <rect id="Mask" width="360.349" height="62.098" transform="translate(360.349 62.098) rotate(180)" fill="#65a3ff"/>
    </clipPath>
    <clipPath id="clip-path-3">
      <rect id="Mask-2" data-name="Mask" width="324.884" height="87.969" rx="3.05" fill="#fff" stroke="#d5d5d5" stroke-miterlimit="10" stroke-width="0.672"/>
    </clipPath>
    <clipPath id="clip-Android_Mobile_1">
      <rect width="360" height="640"/>
    </clipPath>
  </defs>
  <g id="Android_Mobile_1" data-name="Android Mobile – 1" clip-path="url(#clip-Android_Mobile_1)">
    <rect width="360" height="640" fill="#fff"/>
    <g id="Group_1" data-name="Group 1" transform="translate(11 -1)">
      <text id="_3_copy" data-name="3 copy" transform="translate(-24.481 340.396)" fill="#646464" font-size="1" font-family="SegoeUI, Segoe UI" letter-spacing="-0.022em"><tspan x="-0.27" y="0">3</tspan></text>
      <g id="stars_copy" data-name="stars copy" transform="translate(-40.95 338.139)">
        <g id="Shape" transform="translate(0 0)">
          <path id="path-1-2" data-name="path-1" d="M12.857,12.857H0V9.342H2.335V7.006H4.671V4.671H7.006V2.335H9.342V0h3.516V12.856ZM1,10.346v1.507H11.853V1H10.346V3.339H8.01V5.675H5.675V8.01H3.339v2.336Z" fill="#e04f46"/>
        </g>
        <g id="color-_-gray_Clipped" data-name="color-/-gray Clipped" transform="translate(0 0)">
          <path id="path-1-3" data-name="path-1" d="M12.857,12.857H0V9.342H2.335V7.006H4.671V4.671H7.006V2.335H9.342V0h3.516V12.856ZM1,10.346v1.507H11.853V1H10.346V3.339H8.01V5.675H5.675V8.01H3.339v2.336Z" fill="none"/>
          <g id="color-_-gray_Clipped-2" data-name="color-/-gray Clipped" clip-path="url(#clip-path)">
            <g id="color-_-gray" data-name="color-/-gray" transform="translate(0 0)">
              <rect id="Rectangle" width="12.857" height="12.857" fill="#e04f46"/>
            </g>
          </g>
        </g>
      </g>
      <g id="Group_24" data-name="Group 24" transform="translate(349 62.688) rotate(180)">
        <g id="nav_bar" data-name="nav bar" transform="translate(0.06 0)">
          <g id="Group_23" data-name="Group 23">
            <g id="ui_pic" data-name="ui/pic">
              <rect id="Mask-12" data-name="Mask" width="360.349" height="62.098" transform="translate(360.349 62.098) rotate(180)" fill="#65a3ff"/>
            </g>
          </g>
        </g>
        <text id="Connect" transform="translate(328.373 29.502) rotate(180)" fill="#fff" font-size="15" font-family="SegoeUI, Segoe UI"><tspan x="104.732" y="16">Game Search</tspan></text>
      </g>
      <g id="icon" transform="translate(22.32 38.144) rotate(180)">
        <rect id="Rectangle-2" data-name="Rectangle" width="2.03" height="9.135" rx="1.015" transform="translate(1.435 13.042) rotate(-135)" fill="#b3b3b3"/>
        <rect id="Rectangle_Copy" data-name="Rectangle Copy" width="2.03" height="9.135" rx="1.015" transform="translate(0.072 1.435) rotate(-45)" fill="#b3b3b3"/>
      </g>
      <g id="Bars_Status_Black" data-name="Bars/Status/Black" transform="translate(-11.409 0.59)">
        <rect id="Bars_Status_Black_background" data-name="Bars/Status/Black background" width="360.409" height="19.518" fill="rgba(0,0,0,0)"/>
        <g id="Pin_Right" data-name="Pin Right" transform="translate(292.97 3.085)">
          <g id="Battery" transform="translate(7.493)">
            <g id="Battery-2" data-name="Battery" transform="translate(31.736 0.882)">
              <g id="Border" fill="none" stroke-miterlimit="10" opacity="0.4">
                <path d="M0,2.2A2.2,2.2,0,0,1,2.2,0h16.75a2.2,2.2,0,0,1,2.2,2.2v5.73a2.2,2.2,0,0,1-2.2,2.2H2.2A2.2,2.2,0,0,1,0,7.934Z" stroke="none"/>
                <path d="M 2.203899383544922 1 C 1.540069580078125 1 1 1.540070533752441 1 2.203900337219238 L 1 7.934020042419434 C 1 8.59784984588623 1.540069580078125 9.137920379638672 2.203899383544922 9.137920379638672 L 17.76131820678711 9.137920379638672 L 18.95349884033203 9.137920379638672 C 19.61732864379883 9.137920379638672 20.15739822387695 8.59784984588623 20.15739822387695 7.934020042419434 L 20.15739822387695 2.203900337219238 C 20.15739822387695 1.540070533752441 19.61732864379883 1 18.95349884033203 1 L 2.203899383544922 1 M 2.203899383544922 0 L 18.95349884033203 0 C 20.17067909240723 0 21.15739822387695 0.986720085144043 21.15739822387695 2.203900337219238 L 21.15739822387695 7.934020042419434 C 21.15739822387695 9.151200294494629 20.17067909240723 10.13792037963867 18.95349884033203 10.13792037963867 L 17.76131820678711 10.13792037963867 L 0 10.13792037963867 L 2.203899383544922 10.13792037963867 C 0.9867191314697266 10.13792037963867 0 9.151200294494629 0 7.934020042419434 L 0 2.203900337219238 C 0 0.986720085144043 0.9867191314697266 0 2.203899383544922 0 Z" stroke="none" fill="#fff"/>
              </g>
              <path id="Nub" d="M0,3.415H0V0A1.762,1.762,0,0,1,1.323,1.707,1.762,1.762,0,0,1,0,3.414Z" transform="translate(22.039 3.526)" fill="#fff" opacity="0.4"/>
              <rect id="Charge" width="17.631" height="6.612" rx="0.5" transform="translate(1.763 1.763)" fill="#fff"/>
            </g>
            <text id="_100_" data-name="100%" fill="#fff" font-size="12" font-family="SegoeUI, Segoe UI"><tspan x="9.685" y="13">100</tspan></text>
          </g>
          <path id="Bluetooth" d="M0,1.763,5.289,6.612l-2.645,2.2V0L5.289,2.2,0,7.052" transform="translate(0 1.322)" fill="none" stroke="#fff" stroke-miterlimit="10" stroke-width="1"/>
        </g>
        <text id="Time" transform="translate(174.878 11.763)" fill="#fff" font-size="9" font-family="SegoeUI-Semibold, Segoe UI" font-weight="600"><tspan x="-16.418" y="0">9:41 AM</tspan></text>
        <g id="Signal">
          <rect id="Signal_background" data-name="Signal background" width="122.537" height="17.631" fill="rgba(0,0,0,0)"/>
          <text id="Carrier" transform="translate(22.921 12.322)" fill="#fff" font-size="10" font-family="SegoeUI, Segoe UI"><tspan x="0" y="0">Sketch</tspan></text>
          <path id="Mobile_Signal" data-name="Mobile Signal" d="M12.9,8.816a1,1,0,0,1-1-1V1a1,1,0,0,1,1-1h.645a1,1,0,0,1,1,1V7.816a1,1,0,0,1-1,1Zm-3.966,0a1,1,0,0,1-1-1V2.763a1,1,0,0,1,1-1h.644a1,1,0,0,1,1,1V7.816a1,1,0,0,1-1,1Zm-3.967,0a1,1,0,0,1-1-1V4.527a1,1,0,0,1,1-1h.644a1,1,0,0,1,1,1V7.816a1,1,0,0,1-1,1ZM1,8.816a1,1,0,0,1-1-1V5.849a1,1,0,0,1,1-1h.644a1,1,0,0,1,1,1V7.816a1,1,0,0,1-1,1Z" transform="translate(5.289 4.408)" fill="#fff"/>
          <path id="Wifi" d="M6.321,8.815h0l-1.95-1.95a3.086,3.086,0,0,1,3.9,0l-1.95,1.95ZM3.431,5.928h0L2.183,4.678a6.172,6.172,0,0,1,8.275,0L9.211,5.926a4.411,4.411,0,0,0-5.778,0ZM1.246,3.742h0L0,2.494a9.256,9.256,0,0,1,12.642,0L11.4,3.741a7.5,7.5,0,0,0-10.148,0Z" transform="translate(62.881 4.408)" fill="#fff"/>
        </g>
      </g>
      <rect id="Rectangle-3" data-name="Rectangle" width="35.526" height="36.203" transform="translate(9.124 56.016)" fill="none"/>
      <rect id="Rectangle_Copy-2" data-name="Rectangle Copy" width="86.277" height="36.203" transform="translate(50.287 57.017)" fill="none"/>
      <rect id="Rectangle-4" data-name="Rectangle" width="35.526" height="36.203" transform="translate(9.124 155.12)" fill="none"/>
      <g id="Component_1_1" data-name="Component 1 – 1" transform="translate(5.124 230.224)">
        <g id="Group_6" data-name="Group 6" transform="translate(3.383 11.626)">
          <rect id="Mask-13" data-name="Mask" width="324.884" height="87.969" rx="3.05" fill="#fff" stroke="#d5d5d5" stroke-miterlimit="10" stroke-width="0.672"/>
          <g id="Group_6-2" data-name="Group 6" clip-path="url(#clip-path-3)">
            <g id="Group_5" data-name="Group 5" transform="translate(12.329 20.639)">
              <rect id="Rectangle_13" data-name="Rectangle 13" width="52.785" height="20.278" rx="10.139" transform="translate(0 0)" fill="#d0d0d0"/>
              <rect id="Rectangle_13_Copy" data-name="Rectangle 13 Copy" width="35.321" height="8.12" rx="4.06" transform="translate(8.732 6.079)" fill="#dcdcdc"/>
              <rect id="Rectangle_13_Copy_2" data-name="Rectangle 13 Copy 2" width="41.319" height="8.12" rx="4.06" transform="translate(177.936 38.571)" fill="#a7a7a7" opacity="0.296"/>
              <rect id="Rectangle_13_Copy_3" data-name="Rectangle 13 Copy 3" width="137.284" height="10.827" rx="5.413" transform="translate(81.971 16.917)" fill="#65a3ff"/>
              <rect id="Rectangle_13_Copy_4" data-name="Rectangle 13 Copy 4" width="51.981" height="6.09" rx="3.045" transform="translate(167.273)" fill="#515151" opacity="0.296"/>
            </g>
            <g id="_001-appartment" data-name="001-appartment" transform="translate(253.716 13.731)">
              <g id="Logos_3karatLogo" data-name="Logos / 3karatLogo" transform="translate(0 0)">
                <ellipse id="Oval" cx="29.242" cy="28.942" rx="29.242" ry="28.942" fill="#d8d8d8"/>
                <path id="photo_icon" data-name="photo icon" d="M12.557,12.433h0a72.614,72.614,0,0,1-9.473-.666C1,11.483.02,11.237,0,10.993c-.016-.2.58-.383,1.271-.6.75-.23,1.6-.491,1.812-.832l.089-.143C3.813,8.395,5.005,6.48,6.759,5.9a1.463,1.463,0,0,1,.455-.085c.555,0,.72.474.814.986.016.087.03.173.044.257.063.391.117.729.344.729a.4.4,0,0,0,.18-.053A5.771,5.771,0,0,0,9.809,6.165c1.062-1.631,2.667-4.1,4.667-4.3a4.609,4.609,0,0,1,.471-.025c2.146,0,2.91,1.705,3.795,3.68.163.364.331.738.512,1.114.2.42.41.811.61,1.189.643,1.215,1.151,2.174.858,2.9a2.128,2.128,0,0,1-1.468,1.043A25.055,25.055,0,0,1,12.557,12.433ZM5.272,4.38A2.19,2.19,0,1,1,7.451,2.19,2.187,2.187,0,0,1,5.272,4.38Z" transform="translate(18.839 23.171)" fill="#a3a3a3"/>
              </g>
            </g>
          </g>
        </g>
        <rect id="Mask-14" data-name="Mask" width="324.884" height="87.969" rx="3.05" transform="translate(3.383 11.626)" fill="#fff" stroke="#d5d5d5" stroke-miterlimit="10" stroke-width="0.672"/>
        <g id="Group_6-3" data-name="Group 6" transform="translate(3.383 11.626)" clip-path="url(#clip-path-3)">
          <rect id="Mask_Copy" data-name="Mask Copy" width="86.636" height="87.969" rx="3.05" transform="translate(238.248)" fill="#d8d8d8" stroke="#d5d5d5" stroke-miterlimit="10" stroke-width="0.672"/>
          <g id="_001-appartment-2" data-name="001-appartment" transform="translate(240.121 -0.208)">
            <g id="Logos_3karatLogo-2" data-name="Logos / 3karatLogo" transform="translate(0)">
              <ellipse id="Oval-2" data-name="Oval" cx="43.033" cy="42.661" rx="43.033" ry="42.661" fill="#d8d8d8"/>
              <path id="photo_icon-2" data-name="photo icon" d="M18.479,18.326h0a106.7,106.7,0,0,1-13.942-.982C1.471,16.926.029,16.563,0,16.2c-.023-.3.854-.565,1.869-.877,1.1-.339,2.354-.724,2.668-1.227l.13-.209c.943-1.516,2.7-4.338,5.279-5.2a2.15,2.15,0,0,1,.669-.125c.817,0,1.059.7,1.2,1.454.024.128.044.256.064.38.092.576.172,1.073.506,1.073a.584.584,0,0,0,.266-.079,8.5,8.5,0,0,0,1.786-2.31A29.652,29.652,0,0,1,17.369,5.1,6.462,6.462,0,0,1,21.3,2.744,6.773,6.773,0,0,1,22,2.707c3.159,0,4.283,2.515,5.585,5.426.239.535.486,1.087.753,1.64.3.619.6,1.2.9,1.753.947,1.791,1.694,3.2,1.262,4.28a3.134,3.134,0,0,1-2.16,1.537A36.793,36.793,0,0,1,18.479,18.326ZM7.758,6.456a3.228,3.228,0,1,1,3.207-3.228A3.221,3.221,0,0,1,7.758,6.456Z" transform="translate(27.723 34.154)" fill="#a3a3a3"/>
            </g>
          </g>
          <text id="Game_Name" data-name="Game Name" transform="translate(134.492 16.15)" fill="#707070" font-size="12" font-family="SegoeUI, Segoe UI"><tspan x="0" y="0">Game Name</tspan></text>
          <text id="Description_of_the_game_being_played_date_ect." data-name="Description of the game being played, date ect." transform="translate(27.492 65.15)" fill="#707070" font-size="7" font-family="SegoeUI, Segoe UI"><tspan x="0" y="0">Description of the game being played, date ect.</tspan></text>
          <g id="_001-appartment-3" data-name="001-appartment" transform="translate(9.181 5.081)">
            <g id="Logos_3karatLogo-3" data-name="Logos / 3karatLogo" transform="translate(0 0)">
              <ellipse id="Oval-3" data-name="Oval" cx="20.784" cy="20.604" rx="20.784" ry="20.604" fill="#d8d8d8"/>
              <path id="photo_icon-3" data-name="photo icon" d="M18.479,18.326h0a106.7,106.7,0,0,1-13.942-.982C1.471,16.926.029,16.563,0,16.2c-.023-.3.854-.565,1.869-.877,1.1-.339,2.354-.724,2.668-1.227l.13-.209c.943-1.516,2.7-4.338,5.279-5.2a2.15,2.15,0,0,1,.669-.125c.817,0,1.059.7,1.2,1.454.024.128.044.256.064.38.092.576.172,1.073.506,1.073a.584.584,0,0,0,.266-.079,8.5,8.5,0,0,0,1.786-2.31A29.652,29.652,0,0,1,17.369,5.1,6.462,6.462,0,0,1,21.3,2.744,6.773,6.773,0,0,1,22,2.707c3.159,0,4.283,2.515,5.585,5.426.239.535.486,1.087.753,1.64.3.619.6,1.2.9,1.753.947,1.791,1.694,3.2,1.262,4.28a3.134,3.134,0,0,1-2.16,1.537A36.793,36.793,0,0,1,18.479,18.326ZM7.758,6.456a3.228,3.228,0,1,1,3.207-3.228A3.221,3.221,0,0,1,7.758,6.456Z" transform="translate(5.474 19.506)" fill="#a3a3a3"/>
            </g>
          </g>
        </g>
        <rect id="Rectangle-5" data-name="Rectangle" width="35.526" height="36.203" fill="none"/>
        <rect id="Rectangle_Copy-3" data-name="Rectangle Copy" width="86.277" height="36.203" transform="translate(41.163 1.001)" fill="none"/>
        <text id="Username" transform="translate(61.876 28.776)" fill="#707070" font-size="8" font-family="SegoeUI, Segoe UI"><tspan x="0" y="0">Username</tspan></text>
        <text id="Info" transform="translate(62.876 40.776)" fill="#707070" font-size="8" font-family="SegoeUI, Segoe UI"><tspan x="0" y="0">Info</tspan></text>
      </g>
      <g id="Component_1_2" data-name="Component 1 – 2" transform="translate(5.124 328.224)">
        <g id="Group_6-4" data-name="Group 6" transform="translate(3.383 11.626)">
          <rect id="Mask-15" data-name="Mask" width="324.884" height="87.969" rx="3.05" fill="#fff" stroke="#d5d5d5" stroke-miterlimit="10" stroke-width="0.672"/>
          <g id="Group_6-5" data-name="Group 6" clip-path="url(#clip-path-3)">
            <g id="Group_5-2" data-name="Group 5" transform="translate(12.329 20.639)">
              <rect id="Rectangle_13-2" data-name="Rectangle 13" width="52.785" height="20.278" rx="10.139" transform="translate(0 0)" fill="#d0d0d0"/>
              <rect id="Rectangle_13_Copy-2" data-name="Rectangle 13 Copy" width="35.321" height="8.12" rx="4.06" transform="translate(8.732 6.079)" fill="#dcdcdc"/>
              <rect id="Rectangle_13_Copy_2-2" data-name="Rectangle 13 Copy 2" width="41.319" height="8.12" rx="4.06" transform="translate(177.936 38.571)" fill="#a7a7a7" opacity="0.296"/>
              <rect id="Rectangle_13_Copy_3-2" data-name="Rectangle 13 Copy 3" width="137.284" height="10.827" rx="5.413" transform="translate(81.971 16.917)" fill="#65a3ff"/>
              <rect id="Rectangle_13_Copy_4-2" data-name="Rectangle 13 Copy 4" width="51.981" height="6.09" rx="3.045" transform="translate(167.273)" fill="#515151" opacity="0.296"/>
            </g>
            <g id="_001-appartment-4" data-name="001-appartment" transform="translate(253.716 13.731)">
              <g id="Logos_3karatLogo-4" data-name="Logos / 3karatLogo" transform="translate(0 0)">
                <ellipse id="Oval-4" data-name="Oval" cx="29.242" cy="28.942" rx="29.242" ry="28.942" fill="#d8d8d8"/>
                <path id="photo_icon-4" data-name="photo icon" d="M12.557,12.433h0a72.614,72.614,0,0,1-9.473-.666C1,11.483.02,11.237,0,10.993c-.016-.2.58-.383,1.271-.6.75-.23,1.6-.491,1.812-.832l.089-.143C3.813,8.395,5.005,6.48,6.759,5.9a1.463,1.463,0,0,1,.455-.085c.555,0,.72.474.814.986.016.087.03.173.044.257.063.391.117.729.344.729a.4.4,0,0,0,.18-.053A5.771,5.771,0,0,0,9.809,6.165c1.062-1.631,2.667-4.1,4.667-4.3a4.609,4.609,0,0,1,.471-.025c2.146,0,2.91,1.705,3.795,3.68.163.364.331.738.512,1.114.2.42.41.811.61,1.189.643,1.215,1.151,2.174.858,2.9a2.128,2.128,0,0,1-1.468,1.043A25.055,25.055,0,0,1,12.557,12.433ZM5.272,4.38A2.19,2.19,0,1,1,7.451,2.19,2.187,2.187,0,0,1,5.272,4.38Z" transform="translate(18.839 23.171)" fill="#a3a3a3"/>
              </g>
            </g>
          </g>
        </g>
        <rect id="Mask-16" data-name="Mask" width="324.884" height="87.969" rx="3.05" transform="translate(3.383 11.626)" fill="#fff" stroke="#d5d5d5" stroke-miterlimit="10" stroke-width="0.672"/>
        <g id="Group_6-6" data-name="Group 6" transform="translate(3.383 11.626)" clip-path="url(#clip-path-3)">
          <rect id="Mask_Copy-2" data-name="Mask Copy" width="86.636" height="87.969" rx="3.05" transform="translate(238.248)" fill="#d8d8d8" stroke="#d5d5d5" stroke-miterlimit="10" stroke-width="0.672"/>
          <g id="_001-appartment-5" data-name="001-appartment" transform="translate(240.121 -0.208)">
            <g id="Logos_3karatLogo-5" data-name="Logos / 3karatLogo" transform="translate(0)">
              <ellipse id="Oval-5" data-name="Oval" cx="43.033" cy="42.661" rx="43.033" ry="42.661" fill="#d8d8d8"/>
              <path id="photo_icon-5" data-name="photo icon" d="M18.479,18.326h0a106.7,106.7,0,0,1-13.942-.982C1.471,16.926.029,16.563,0,16.2c-.023-.3.854-.565,1.869-.877,1.1-.339,2.354-.724,2.668-1.227l.13-.209c.943-1.516,2.7-4.338,5.279-5.2a2.15,2.15,0,0,1,.669-.125c.817,0,1.059.7,1.2,1.454.024.128.044.256.064.38.092.576.172,1.073.506,1.073a.584.584,0,0,0,.266-.079,8.5,8.5,0,0,0,1.786-2.31A29.652,29.652,0,0,1,17.369,5.1,6.462,6.462,0,0,1,21.3,2.744,6.773,6.773,0,0,1,22,2.707c3.159,0,4.283,2.515,5.585,5.426.239.535.486,1.087.753,1.64.3.619.6,1.2.9,1.753.947,1.791,1.694,3.2,1.262,4.28a3.134,3.134,0,0,1-2.16,1.537A36.793,36.793,0,0,1,18.479,18.326ZM7.758,6.456a3.228,3.228,0,1,1,3.207-3.228A3.221,3.221,0,0,1,7.758,6.456Z" transform="translate(27.723 34.154)" fill="#a3a3a3"/>
            </g>
          </g>
          <text id="Game_Name-2" data-name="Game Name" transform="translate(134.492 16.15)" fill="#707070" font-size="12" font-family="SegoeUI, Segoe UI"><tspan x="0" y="0">Game Name</tspan></text>
          <text id="Description_of_the_game_being_played_date_ect.-2" data-name="Description of the game being played, date ect." transform="translate(27.492 65.15)" fill="#707070" font-size="7" font-family="SegoeUI, Segoe UI"><tspan x="0" y="0">Description of the game being played, date ect.</tspan></text>
          <g id="_001-appartment-6" data-name="001-appartment" transform="translate(9.181 5.081)">
            <g id="Logos_3karatLogo-6" data-name="Logos / 3karatLogo" transform="translate(0 0)">
              <ellipse id="Oval-6" data-name="Oval" cx="20.784" cy="20.604" rx="20.784" ry="20.604" fill="#d8d8d8"/>
              <path id="photo_icon-6" data-name="photo icon" d="M18.479,18.326h0a106.7,106.7,0,0,1-13.942-.982C1.471,16.926.029,16.563,0,16.2c-.023-.3.854-.565,1.869-.877,1.1-.339,2.354-.724,2.668-1.227l.13-.209c.943-1.516,2.7-4.338,5.279-5.2a2.15,2.15,0,0,1,.669-.125c.817,0,1.059.7,1.2,1.454.024.128.044.256.064.38.092.576.172,1.073.506,1.073a.584.584,0,0,0,.266-.079,8.5,8.5,0,0,0,1.786-2.31A29.652,29.652,0,0,1,17.369,5.1,6.462,6.462,0,0,1,21.3,2.744,6.773,6.773,0,0,1,22,2.707c3.159,0,4.283,2.515,5.585,5.426.239.535.486,1.087.753,1.64.3.619.6,1.2.9,1.753.947,1.791,1.694,3.2,1.262,4.28a3.134,3.134,0,0,1-2.16,1.537A36.793,36.793,0,0,1,18.479,18.326ZM7.758,6.456a3.228,3.228,0,1,1,3.207-3.228A3.221,3.221,0,0,1,7.758,6.456Z" transform="translate(5.474 19.506)" fill="#a3a3a3"/>
            </g>
          </g>
        </g>
        <rect id="Rectangle-6" data-name="Rectangle" width="35.526" height="36.203" fill="none"/>
        <rect id="Rectangle_Copy-4" data-name="Rectangle Copy" width="86.277" height="36.203" transform="translate(41.163 1.001)" fill="none"/>
        <text id="Username-2" data-name="Username" transform="translate(61.876 28.776)" fill="#707070" font-size="8" font-family="SegoeUI, Segoe UI"><tspan x="0" y="0">Username</tspan></text>
        <text id="Info-2" data-name="Info" transform="translate(62.876 40.776)" fill="#707070" font-size="8" font-family="SegoeUI, Segoe UI"><tspan x="0" y="0">Info</tspan></text>
      </g>
      <g id="Component_1_3" data-name="Component 1 – 3" transform="translate(5.124 132.224)">
        <g id="Group_6-7" data-name="Group 6" transform="translate(3.383 11.626)">
          <rect id="Mask-17" data-name="Mask" width="324.884" height="87.969" rx="3.05" fill="#fff" stroke="#d5d5d5" stroke-miterlimit="10" stroke-width="0.672"/>
          <g id="Group_6-8" data-name="Group 6" clip-path="url(#clip-path-3)">
            <g id="Group_5-3" data-name="Group 5" transform="translate(12.329 20.639)">
              <rect id="Rectangle_13-3" data-name="Rectangle 13" width="52.785" height="20.278" rx="10.139" transform="translate(0 0)" fill="#d0d0d0"/>
              <rect id="Rectangle_13_Copy-3" data-name="Rectangle 13 Copy" width="35.321" height="8.12" rx="4.06" transform="translate(8.732 6.079)" fill="#dcdcdc"/>
              <rect id="Rectangle_13_Copy_2-3" data-name="Rectangle 13 Copy 2" width="41.319" height="8.12" rx="4.06" transform="translate(177.936 38.571)" fill="#a7a7a7" opacity="0.296"/>
              <rect id="Rectangle_13_Copy_3-3" data-name="Rectangle 13 Copy 3" width="137.284" height="10.827" rx="5.413" transform="translate(81.971 16.917)" fill="#65a3ff"/>
              <rect id="Rectangle_13_Copy_4-3" data-name="Rectangle 13 Copy 4" width="51.981" height="6.09" rx="3.045" transform="translate(167.273)" fill="#515151" opacity="0.296"/>
            </g>
            <g id="_001-appartment-7" data-name="001-appartment" transform="translate(253.716 13.731)">
              <g id="Logos_3karatLogo-7" data-name="Logos / 3karatLogo" transform="translate(0 0)">
                <ellipse id="Oval-7" data-name="Oval" cx="29.242" cy="28.942" rx="29.242" ry="28.942" fill="#d8d8d8"/>
                <path id="photo_icon-7" data-name="photo icon" d="M12.557,12.433h0a72.614,72.614,0,0,1-9.473-.666C1,11.483.02,11.237,0,10.993c-.016-.2.58-.383,1.271-.6.75-.23,1.6-.491,1.812-.832l.089-.143C3.813,8.395,5.005,6.48,6.759,5.9a1.463,1.463,0,0,1,.455-.085c.555,0,.72.474.814.986.016.087.03.173.044.257.063.391.117.729.344.729a.4.4,0,0,0,.18-.053A5.771,5.771,0,0,0,9.809,6.165c1.062-1.631,2.667-4.1,4.667-4.3a4.609,4.609,0,0,1,.471-.025c2.146,0,2.91,1.705,3.795,3.68.163.364.331.738.512,1.114.2.42.41.811.61,1.189.643,1.215,1.151,2.174.858,2.9a2.128,2.128,0,0,1-1.468,1.043A25.055,25.055,0,0,1,12.557,12.433ZM5.272,4.38A2.19,2.19,0,1,1,7.451,2.19,2.187,2.187,0,0,1,5.272,4.38Z" transform="translate(18.839 23.171)" fill="#a3a3a3"/>
              </g>
            </g>
          </g>
        </g>
        <rect id="Mask-18" data-name="Mask" width="324.884" height="87.969" rx="3.05" transform="translate(3.383 11.626)" fill="#fff" stroke="#d5d5d5" stroke-miterlimit="10" stroke-width="0.672"/>
        <g id="Group_6-9" data-name="Group 6" transform="translate(3.383 11.626)" clip-path="url(#clip-path-3)">
          <rect id="Mask_Copy-3" data-name="Mask Copy" width="86.636" height="87.969" rx="3.05" transform="translate(238.248)" fill="#d8d8d8" stroke="#d5d5d5" stroke-miterlimit="10" stroke-width="0.672"/>
          <g id="_001-appartment-8" data-name="001-appartment" transform="translate(240.121 -0.208)">
            <g id="Logos_3karatLogo-8" data-name="Logos / 3karatLogo" transform="translate(0)">
              <ellipse id="Oval-8" data-name="Oval" cx="43.033" cy="42.661" rx="43.033" ry="42.661" fill="#d8d8d8"/>
              <path id="photo_icon-8" data-name="photo icon" d="M18.479,18.326h0a106.7,106.7,0,0,1-13.942-.982C1.471,16.926.029,16.563,0,16.2c-.023-.3.854-.565,1.869-.877,1.1-.339,2.354-.724,2.668-1.227l.13-.209c.943-1.516,2.7-4.338,5.279-5.2a2.15,2.15,0,0,1,.669-.125c.817,0,1.059.7,1.2,1.454.024.128.044.256.064.38.092.576.172,1.073.506,1.073a.584.584,0,0,0,.266-.079,8.5,8.5,0,0,0,1.786-2.31A29.652,29.652,0,0,1,17.369,5.1,6.462,6.462,0,0,1,21.3,2.744,6.773,6.773,0,0,1,22,2.707c3.159,0,4.283,2.515,5.585,5.426.239.535.486,1.087.753,1.64.3.619.6,1.2.9,1.753.947,1.791,1.694,3.2,1.262,4.28a3.134,3.134,0,0,1-2.16,1.537A36.793,36.793,0,0,1,18.479,18.326ZM7.758,6.456a3.228,3.228,0,1,1,3.207-3.228A3.221,3.221,0,0,1,7.758,6.456Z" transform="translate(27.723 34.154)" fill="#a3a3a3"/>
            </g>
          </g>
          <text id="Game_Name-3" data-name="Game Name" transform="translate(134.492 16.15)" fill="#707070" font-size="12" font-family="SegoeUI, Segoe UI"><tspan x="0" y="0">Game Name</tspan></text>
          <text id="Description_of_the_game_being_played_date_ect.-3" data-name="Description of the game being played, date ect." transform="translate(27.492 65.15)" fill="#707070" font-size="7" font-family="SegoeUI, Segoe UI"><tspan x="0" y="0">Description of the game being played, date ect.</tspan></text>
          <g id="_001-appartment-9" data-name="001-appartment" transform="translate(9.181 5.081)">
            <g id="Logos_3karatLogo-9" data-name="Logos / 3karatLogo" transform="translate(0 0)">
              <ellipse id="Oval-9" data-name="Oval" cx="20.784" cy="20.604" rx="20.784" ry="20.604" fill="#d8d8d8"/>
              <path id="photo_icon-9" data-name="photo icon" d="M18.479,18.326h0a106.7,106.7,0,0,1-13.942-.982C1.471,16.926.029,16.563,0,16.2c-.023-.3.854-.565,1.869-.877,1.1-.339,2.354-.724,2.668-1.227l.13-.209c.943-1.516,2.7-4.338,5.279-5.2a2.15,2.15,0,0,1,.669-.125c.817,0,1.059.7,1.2,1.454.024.128.044.256.064.38.092.576.172,1.073.506,1.073a.584.584,0,0,0,.266-.079,8.5,8.5,0,0,0,1.786-2.31A29.652,29.652,0,0,1,17.369,5.1,6.462,6.462,0,0,1,21.3,2.744,6.773,6.773,0,0,1,22,2.707c3.159,0,4.283,2.515,5.585,5.426.239.535.486,1.087.753,1.64.3.619.6,1.2.9,1.753.947,1.791,1.694,3.2,1.262,4.28a3.134,3.134,0,0,1-2.16,1.537A36.793,36.793,0,0,1,18.479,18.326ZM7.758,6.456a3.228,3.228,0,1,1,3.207-3.228A3.221,3.221,0,0,1,7.758,6.456Z" transform="translate(5.474 19.506)" fill="#a3a3a3"/>
            </g>
          </g>
        </g>
        <rect id="Rectangle-7" data-name="Rectangle" width="35.526" height="36.203" fill="none"/>
        <rect id="Rectangle_Copy-5" data-name="Rectangle Copy" width="86.277" height="36.203" transform="translate(41.163 1.001)" fill="none"/>
        <text id="Username-3" data-name="Username" transform="translate(61.876 28.776)" fill="#707070" font-size="8" font-family="SegoeUI, Segoe UI"><tspan x="0" y="0">Username</tspan></text>
        <text id="Info-3" data-name="Info" transform="translate(62.876 40.776)" fill="#707070" font-size="8" font-family="SegoeUI, Segoe UI"><tspan x="0" y="0">Info</tspan></text>
      </g>
      <g id="Component_1_4" data-name="Component 1 – 4" transform="translate(5.124 426.224)">
        <g id="Group_6-10" data-name="Group 6" transform="translate(3.383 11.626)">
          <rect id="Mask-19" data-name="Mask" width="324.884" height="87.969" rx="3.05" fill="#fff" stroke="#d5d5d5" stroke-miterlimit="10" stroke-width="0.672"/>
          <g id="Group_6-11" data-name="Group 6" clip-path="url(#clip-path-3)">
            <g id="Group_5-4" data-name="Group 5" transform="translate(12.329 20.639)">
              <rect id="Rectangle_13-4" data-name="Rectangle 13" width="52.785" height="20.278" rx="10.139" transform="translate(0 0)" fill="#d0d0d0"/>
              <rect id="Rectangle_13_Copy-4" data-name="Rectangle 13 Copy" width="35.321" height="8.12" rx="4.06" transform="translate(8.732 6.079)" fill="#dcdcdc"/>
              <rect id="Rectangle_13_Copy_2-4" data-name="Rectangle 13 Copy 2" width="41.319" height="8.12" rx="4.06" transform="translate(177.936 38.571)" fill="#a7a7a7" opacity="0.296"/>
              <rect id="Rectangle_13_Copy_3-4" data-name="Rectangle 13 Copy 3" width="137.284" height="10.827" rx="5.413" transform="translate(81.971 16.917)" fill="#65a3ff"/>
              <rect id="Rectangle_13_Copy_4-4" data-name="Rectangle 13 Copy 4" width="51.981" height="6.09" rx="3.045" transform="translate(167.273)" fill="#515151" opacity="0.296"/>
            </g>
            <g id="_001-appartment-10" data-name="001-appartment" transform="translate(253.716 13.731)">
              <g id="Logos_3karatLogo-10" data-name="Logos / 3karatLogo" transform="translate(0 0)">
                <ellipse id="Oval-10" data-name="Oval" cx="29.242" cy="28.942" rx="29.242" ry="28.942" fill="#d8d8d8"/>
                <path id="photo_icon-10" data-name="photo icon" d="M12.557,12.433h0a72.614,72.614,0,0,1-9.473-.666C1,11.483.02,11.237,0,10.993c-.016-.2.58-.383,1.271-.6.75-.23,1.6-.491,1.812-.832l.089-.143C3.813,8.395,5.005,6.48,6.759,5.9a1.463,1.463,0,0,1,.455-.085c.555,0,.72.474.814.986.016.087.03.173.044.257.063.391.117.729.344.729a.4.4,0,0,0,.18-.053A5.771,5.771,0,0,0,9.809,6.165c1.062-1.631,2.667-4.1,4.667-4.3a4.609,4.609,0,0,1,.471-.025c2.146,0,2.91,1.705,3.795,3.68.163.364.331.738.512,1.114.2.42.41.811.61,1.189.643,1.215,1.151,2.174.858,2.9a2.128,2.128,0,0,1-1.468,1.043A25.055,25.055,0,0,1,12.557,12.433ZM5.272,4.38A2.19,2.19,0,1,1,7.451,2.19,2.187,2.187,0,0,1,5.272,4.38Z" transform="translate(18.839 23.171)" fill="#a3a3a3"/>
              </g>
            </g>
          </g>
        </g>
        <rect id="Mask-20" data-name="Mask" width="324.884" height="87.969" rx="3.05" transform="translate(3.383 11.626)" fill="#fff" stroke="#d5d5d5" stroke-miterlimit="10" stroke-width="0.672"/>
        <g id="Group_6-12" data-name="Group 6" transform="translate(3.383 11.626)" clip-path="url(#clip-path-3)">
          <rect id="Mask_Copy-4" data-name="Mask Copy" width="86.636" height="87.969" rx="3.05" transform="translate(238.248)" fill="#d8d8d8" stroke="#d5d5d5" stroke-miterlimit="10" stroke-width="0.672"/>
          <g id="_001-appartment-11" data-name="001-appartment" transform="translate(240.121 -0.208)">
            <g id="Logos_3karatLogo-11" data-name="Logos / 3karatLogo" transform="translate(0)">
              <ellipse id="Oval-11" data-name="Oval" cx="43.033" cy="42.661" rx="43.033" ry="42.661" fill="#d8d8d8"/>
              <path id="photo_icon-11" data-name="photo icon" d="M18.479,18.326h0a106.7,106.7,0,0,1-13.942-.982C1.471,16.926.029,16.563,0,16.2c-.023-.3.854-.565,1.869-.877,1.1-.339,2.354-.724,2.668-1.227l.13-.209c.943-1.516,2.7-4.338,5.279-5.2a2.15,2.15,0,0,1,.669-.125c.817,0,1.059.7,1.2,1.454.024.128.044.256.064.38.092.576.172,1.073.506,1.073a.584.584,0,0,0,.266-.079,8.5,8.5,0,0,0,1.786-2.31A29.652,29.652,0,0,1,17.369,5.1,6.462,6.462,0,0,1,21.3,2.744,6.773,6.773,0,0,1,22,2.707c3.159,0,4.283,2.515,5.585,5.426.239.535.486,1.087.753,1.64.3.619.6,1.2.9,1.753.947,1.791,1.694,3.2,1.262,4.28a3.134,3.134,0,0,1-2.16,1.537A36.793,36.793,0,0,1,18.479,18.326ZM7.758,6.456a3.228,3.228,0,1,1,3.207-3.228A3.221,3.221,0,0,1,7.758,6.456Z" transform="translate(27.723 34.154)" fill="#a3a3a3"/>
            </g>
          </g>
          <text id="Game_Name-4" data-name="Game Name" transform="translate(134.492 16.15)" fill="#707070" font-size="12" font-family="SegoeUI, Segoe UI"><tspan x="0" y="0">Game Name</tspan></text>
          <text id="Description_of_the_game_being_played_date_ect.-4" data-name="Description of the game being played, date ect." transform="translate(27.492 65.15)" fill="#707070" font-size="7" font-family="SegoeUI, Segoe UI"><tspan x="0" y="0">Description of the game being played, date ect.</tspan></text>
          <g id="_001-appartment-12" data-name="001-appartment" transform="translate(9.181 5.081)">
            <g id="Logos_3karatLogo-12" data-name="Logos / 3karatLogo" transform="translate(0 0)">
              <ellipse id="Oval-12" data-name="Oval" cx="20.784" cy="20.604" rx="20.784" ry="20.604" fill="#d8d8d8"/>
              <path id="photo_icon-12" data-name="photo icon" d="M18.479,18.326h0a106.7,106.7,0,0,1-13.942-.982C1.471,16.926.029,16.563,0,16.2c-.023-.3.854-.565,1.869-.877,1.1-.339,2.354-.724,2.668-1.227l.13-.209c.943-1.516,2.7-4.338,5.279-5.2a2.15,2.15,0,0,1,.669-.125c.817,0,1.059.7,1.2,1.454.024.128.044.256.064.38.092.576.172,1.073.506,1.073a.584.584,0,0,0,.266-.079,8.5,8.5,0,0,0,1.786-2.31A29.652,29.652,0,0,1,17.369,5.1,6.462,6.462,0,0,1,21.3,2.744,6.773,6.773,0,0,1,22,2.707c3.159,0,4.283,2.515,5.585,5.426.239.535.486,1.087.753,1.64.3.619.6,1.2.9,1.753.947,1.791,1.694,3.2,1.262,4.28a3.134,3.134,0,0,1-2.16,1.537A36.793,36.793,0,0,1,18.479,18.326ZM7.758,6.456a3.228,3.228,0,1,1,3.207-3.228A3.221,3.221,0,0,1,7.758,6.456Z" transform="translate(5.474 19.506)" fill="#a3a3a3"/>
            </g>
          </g>
        </g>
        <rect id="Rectangle-8" data-name="Rectangle" width="35.526" height="36.203" fill="none"/>
        <rect id="Rectangle_Copy-6" data-name="Rectangle Copy" width="86.277" height="36.203" transform="translate(41.163 1.001)" fill="none"/>
        <text id="Username-4" data-name="Username" transform="translate(61.876 28.776)" fill="#707070" font-size="8" font-family="SegoeUI, Segoe UI"><tspan x="0" y="0">Username</tspan></text>
        <text id="Info-4" data-name="Info" transform="translate(62.876 40.776)" fill="#707070" font-size="8" font-family="SegoeUI, Segoe UI"><tspan x="0" y="0">Info</tspan></text>
      </g>
    </g>
    <g id="password" transform="translate(352.23 75.491) rotate(180)">
      <g id="Rectangle_34" data-name="Rectangle 34" transform="translate(345.869 -2) rotate(180)" fill="#fff" stroke="#8b8b8b" stroke-miterlimit="10" stroke-width="1.346">
        <rect width="345.869" height="48.449" rx="4.037" stroke="none"/>
        <rect x="0.673" y="0.673" width="344.523" height="47.103" rx="3.364" fill="none"/>
      </g>
      <path id="Base" d="M7.2,0H277.959c3.979,0,7.2,4.687,7.2,10.469V17.7c0,5.782-3.225,10.469-7.2,10.469H7.2C3.225,28.172,0,23.485,0,17.7V10.469C0,4.687,3.225,0,7.2,0Z" transform="translate(296.899 -12.422) rotate(180)" fill="#ddd"/>
      <text id="نسيتها_" data-name="نسيتها؟" transform="translate(15.736 -18.433) rotate(180)" fill="#e04f46" font-size="12" font-family="SegoeUI, Segoe UI"><tspan x="51.14" y="13"> </tspan></text>
      <g id="unlock" transform="translate(307.506 -22.33)">
        <rect id="Rectangle-9" data-name="Rectangle" width="26.865" height="26.865" rx="5.373" transform="translate(26.865 9.594) rotate(180)" fill="#b3b3b3"/>
      </g>
    </g>
    <g id="Component_1_5" data-name="Component 1 – 5" transform="translate(16.124 534.224)">
      <g id="Group_6-13" data-name="Group 6" transform="translate(3.383 11.626)">
        <rect id="Mask-21" data-name="Mask" width="324.884" height="87.969" rx="3.05" fill="#fff" stroke="#d5d5d5" stroke-miterlimit="10" stroke-width="0.672"/>
        <g id="Group_6-14" data-name="Group 6" clip-path="url(#clip-path-3)">
          <g id="Group_5-5" data-name="Group 5" transform="translate(12.329 20.639)">
            <rect id="Rectangle_13-5" data-name="Rectangle 13" width="52.785" height="20.278" rx="10.139" transform="translate(0 0)" fill="#d0d0d0"/>
            <rect id="Rectangle_13_Copy-5" data-name="Rectangle 13 Copy" width="35.321" height="8.12" rx="4.06" transform="translate(8.732 6.079)" fill="#dcdcdc"/>
            <rect id="Rectangle_13_Copy_2-5" data-name="Rectangle 13 Copy 2" width="41.319" height="8.12" rx="4.06" transform="translate(177.936 38.571)" fill="#a7a7a7" opacity="0.296"/>
            <rect id="Rectangle_13_Copy_3-5" data-name="Rectangle 13 Copy 3" width="137.284" height="10.827" rx="5.413" transform="translate(81.971 16.917)" fill="#65a3ff"/>
            <rect id="Rectangle_13_Copy_4-5" data-name="Rectangle 13 Copy 4" width="51.981" height="6.09" rx="3.045" transform="translate(167.273)" fill="#515151" opacity="0.296"/>
          </g>
          <g id="_001-appartment-13" data-name="001-appartment" transform="translate(253.716 13.731)">
            <g id="Logos_3karatLogo-13" data-name="Logos / 3karatLogo" transform="translate(0 0)">
              <ellipse id="Oval-13" data-name="Oval" cx="29.242" cy="28.942" rx="29.242" ry="28.942" fill="#d8d8d8"/>
              <path id="photo_icon-13" data-name="photo icon" d="M12.557,12.433h0a72.614,72.614,0,0,1-9.473-.666C1,11.483.02,11.237,0,10.993c-.016-.2.58-.383,1.271-.6.75-.23,1.6-.491,1.812-.832l.089-.143C3.813,8.395,5.005,6.48,6.759,5.9a1.463,1.463,0,0,1,.455-.085c.555,0,.72.474.814.986.016.087.03.173.044.257.063.391.117.729.344.729a.4.4,0,0,0,.18-.053A5.771,5.771,0,0,0,9.809,6.165c1.062-1.631,2.667-4.1,4.667-4.3a4.609,4.609,0,0,1,.471-.025c2.146,0,2.91,1.705,3.795,3.68.163.364.331.738.512,1.114.2.42.41.811.61,1.189.643,1.215,1.151,2.174.858,2.9a2.128,2.128,0,0,1-1.468,1.043A25.055,25.055,0,0,1,12.557,12.433ZM5.272,4.38A2.19,2.19,0,1,1,7.451,2.19,2.187,2.187,0,0,1,5.272,4.38Z" transform="translate(18.839 23.171)" fill="#a3a3a3"/>
            </g>
          </g>
        </g>
      </g>
      <rect id="Mask-22" data-name="Mask" width="324.884" height="87.969" rx="3.05" transform="translate(3.383 11.626)" fill="#fff" stroke="#d5d5d5" stroke-miterlimit="10" stroke-width="0.672"/>
      <g id="Group_6-15" data-name="Group 6" transform="translate(3.383 11.626)" clip-path="url(#clip-path-3)">
        <rect id="Mask_Copy-5" data-name="Mask Copy" width="86.636" height="87.969" rx="3.05" transform="translate(238.248)" fill="#d8d8d8" stroke="#d5d5d5" stroke-miterlimit="10" stroke-width="0.672"/>
        <g id="_001-appartment-14" data-name="001-appartment" transform="translate(240.121 -0.208)">
          <g id="Logos_3karatLogo-14" data-name="Logos / 3karatLogo" transform="translate(0)">
            <ellipse id="Oval-14" data-name="Oval" cx="43.033" cy="42.661" rx="43.033" ry="42.661" fill="#d8d8d8"/>
            <path id="photo_icon-14" data-name="photo icon" d="M18.479,18.326h0a106.7,106.7,0,0,1-13.942-.982C1.471,16.926.029,16.563,0,16.2c-.023-.3.854-.565,1.869-.877,1.1-.339,2.354-.724,2.668-1.227l.13-.209c.943-1.516,2.7-4.338,5.279-5.2a2.15,2.15,0,0,1,.669-.125c.817,0,1.059.7,1.2,1.454.024.128.044.256.064.38.092.576.172,1.073.506,1.073a.584.584,0,0,0,.266-.079,8.5,8.5,0,0,0,1.786-2.31A29.652,29.652,0,0,1,17.369,5.1,6.462,6.462,0,0,1,21.3,2.744,6.773,6.773,0,0,1,22,2.707c3.159,0,4.283,2.515,5.585,5.426.239.535.486,1.087.753,1.64.3.619.6,1.2.9,1.753.947,1.791,1.694,3.2,1.262,4.28a3.134,3.134,0,0,1-2.16,1.537A36.793,36.793,0,0,1,18.479,18.326ZM7.758,6.456a3.228,3.228,0,1,1,3.207-3.228A3.221,3.221,0,0,1,7.758,6.456Z" transform="translate(27.723 34.154)" fill="#a3a3a3"/>
          </g>
        </g>
        <text id="Game_Name-5" data-name="Game Name" transform="translate(134.492 16.15)" fill="#707070" font-size="12" font-family="SegoeUI, Segoe UI"><tspan x="0" y="0">Game Name</tspan></text>
        <text id="Description_of_the_game_being_played_date_ect.-5" data-name="Description of the game being played, date ect." transform="translate(27.492 65.15)" fill="#707070" font-size="7" font-family="SegoeUI, Segoe UI"><tspan x="0" y="0">Description of the game being played, date ect.</tspan></text>
        <g id="_001-appartment-15" data-name="001-appartment" transform="translate(9.181 5.081)">
          <g id="Logos_3karatLogo-15" data-name="Logos / 3karatLogo" transform="translate(0 0)">
            <ellipse id="Oval-15" data-name="Oval" cx="20.784" cy="20.604" rx="20.784" ry="20.604" fill="#d8d8d8"/>
            <path id="photo_icon-15" data-name="photo icon" d="M18.479,18.326h0a106.7,106.7,0,0,1-13.942-.982C1.471,16.926.029,16.563,0,16.2c-.023-.3.854-.565,1.869-.877,1.1-.339,2.354-.724,2.668-1.227l.13-.209c.943-1.516,2.7-4.338,5.279-5.2a2.15,2.15,0,0,1,.669-.125c.817,0,1.059.7,1.2,1.454.024.128.044.256.064.38.092.576.172,1.073.506,1.073a.584.584,0,0,0,.266-.079,8.5,8.5,0,0,0,1.786-2.31A29.652,29.652,0,0,1,17.369,5.1,6.462,6.462,0,0,1,21.3,2.744,6.773,6.773,0,0,1,22,2.707c3.159,0,4.283,2.515,5.585,5.426.239.535.486,1.087.753,1.64.3.619.6,1.2.9,1.753.947,1.791,1.694,3.2,1.262,4.28a3.134,3.134,0,0,1-2.16,1.537A36.793,36.793,0,0,1,18.479,18.326ZM7.758,6.456a3.228,3.228,0,1,1,3.207-3.228A3.221,3.221,0,0,1,7.758,6.456Z" transform="translate(5.474 19.506)" fill="#a3a3a3"/>
          </g>
        </g>
      </g>
      <rect id="Rectangle-10" data-name="Rectangle" width="35.526" height="36.203" fill="none"/>
      <rect id="Rectangle_Copy-7" data-name="Rectangle Copy" width="86.277" height="36.203" transform="translate(41.163 1.001)" fill="none"/>
      <text id="Username-5" data-name="Username" transform="translate(61.876 28.776)" fill="#707070" font-size="8" font-family="SegoeUI, Segoe UI"><tspan x="0" y="0">Username</tspan></text>
      <text id="Info-5" data-name="Info" transform="translate(62.876 40.776)" fill="#707070" font-size="8" font-family="SegoeUI, Segoe UI"><tspan x="0" y="0">Info</tspan></text>
    </g>
  </g>
</svg>
